<?xml version="1.0" encoding="UTF-8" standalone="no"?>
<svg
   height="128"
   width="128"
   version="1.1"
   id="Layer_1"
   viewBox="0 0 81.92 81.92"
   xml:space="preserve"
   xmlns="http://www.w3.org/2000/svg"
   xmlns:svg="http://www.w3.org/2000/svg"
   xmlns:rdf="http://www.w3.org/1999/02/22-rdf-syntax-ns#"
   xmlns:cc="http://creativecommons.org/ns#"><defs
   id="defs9" />
<path
   style="fill:#ca9ee6;fill-opacity:1;stroke-width:0.16342"
   d="M 16.901954,8.1816014 C 21.761798,11.05818 15.474743,23.051643 10.118078,20.217116 L 5.5447948,13.175609 C 3.3991448,9.5060184 6.8690824,5.193985 11.26602,6.0510997 c 3.378712,0.6592947 5.635934,2.1305017 5.635934,2.1305017 z"
   id="path1" />
<path
   style="fill:#ca9ee6;fill-opacity:1;stroke-width:0.16342"
   d="m 70.653927,6.0510997 c 4.398804,-0.8571147 7.866875,3.4549187 5.72326,7.1245093 l -4.573284,7.041665 C 62.93169,20.854046 57.789354,14.570272 64.888277,7.976379 c -1.69e-4,-1.575e-4 2.386769,-1.2659846 5.76565,-1.9252793 z"
   id="path2" />
<path
   style="fill:#8caaee;fill-opacity:1;stroke-width:0.16342"
   d="m 81.037625,46.245399 c 1.15608,5.649523 -1.904362,11.317787 -7.455176,13.864719 C 62.541526,65.177521 44.666197,74.232823 40.960907,81.28 37.255616,74.232823 19.380287,65.177364 8.3374972,60.10996 2.7866834,57.563029 -0.27358883,51.894764 0.88232238,46.245241 2.8516265,36.630343 6.38854,27.710648 10.118078,20.216959 12.413791,15.607408 14.782587,11.538398 16.901954,8.1814439 16.991148,8.0420565 17.078469,7.902669 17.165625,7.7651716 20.885158,1.9293263 28.453772,-0.74187265 35.401954,1.3434265 l 5.558953,1.6671369 5.556918,-1.6671369 c 6.948181,-2.08529915 14.518999,0.5858998 18.236328,6.4219026 0.04459,0.069773 0.08919,0.1393874 0.133786,0.2110499 2.153788,3.396486 4.573283,7.537002 6.915626,12.240895 3.729876,7.493532 7.266791,16.413226 9.23406,26.028125 z"
   id="path3" />

<path
   style="fill:#232634;fill-opacity:1;stroke-width:0.16342"
   d="M 63.1723,30.370665 59.623177,22.98061 c -0.655022,-1.361901 -1.920639,-2.388644 -3.464002,-2.806806 -0.506993,-0.137498 -1.022125,-0.20349 -1.531154,-0.20349 -1.766507,0 -3.464001,0.796792 -4.502236,2.196494 l -0.79135,1.06596 c -1.347008,1.814241 -3.567944,2.897526 -5.94064,2.897526 h -1.915552 -1.913688 c -2.372694,0 -4.59363,-1.083442 -5.940639,-2.897526 l -0.79135,-1.06596 c -1.338531,-1.802744 -3.770233,-2.607096 -6.03356,-1.993004 -0.772698,0.20916 -1.47435,0.57078 -2.064599,1.049265 -0.592113,0.478485 -1.072825,1.077456 -1.399403,1.757541 l -3.549123,7.390055 c -1.127763,2.348009 -1.029077,4.965343 0.111912,7.167664 0.975835,1.883543 3.475533,2.591662 5.412959,1.528065 l 2.944291,-1.616422 -0.84578,4.108544 c -0.920726,4.46276 0.784907,9.044118 4.475954,12.026065 0,1.241414 0.348792,2.405654 0.959219,3.415229 1.28783,2.130501 3.74378,3.567845 6.56073,3.567845 h 4.147341 c 2.81695,0 5.272899,-1.437344 6.560731,-3.567845 0.610426,-1.009733 0.959217,-2.173815 0.959217,-3.415229 3.029921,-2.447077 4.721312,-5.973501 4.721312,-9.626081 0,-0.796793 -0.08105,-1.599413 -0.245358,-2.399984 l -0.847645,-4.108544 2.946835,1.61721 c 1.906905,1.046429 4.392529,0.390442 5.372773,-1.454513 0.622805,-1.172429 0.948874,-2.465819 0.948874,-3.775903 1.69e-4,-1.165972 -0.259431,-2.347064 -0.796946,-3.466101 z"
   id="path5" />
<path
   style="fill:#ca9ee6;fill-opacity:1;stroke-width:0.16342"
   d="m 44.617532,40.906781 c 1.569644,0 2.338443,1.778331 1.204745,2.788064 l -4.344203,3.8693 -4.344034,-3.8693 c -1.133699,-1.009733 -0.363035,-2.788064 1.206779,-2.788064 z"
   id="path6" />
<path
   style="fill:#ca9ee6;fill-opacity:1;stroke-width:0.16342"
   d="m 51.072795,53.584581 c 0,1.241414 -0.348791,0.732847 -0.959218,1.742579 l -6.301639,-2.732782 c -1.479267,-0.641496 -3.188462,-0.641496 -4.66756,1.58e-4 l -6.299773,2.732624 c -0.610427,-1.009732 -0.959218,-0.501165 -0.959218,-1.742579 l 9.592687,-6.020593 z"
   id="path7" />
<path
   style="fill:#ca9ee6;fill-opacity:1;stroke-width:0.16342"
   d="m 32.14414,34.287531 c -0.202458,0 -0.408477,-0.0378 -0.605849,-0.117495 l -2.588039,-1.045485 c -0.770494,-0.31122 -1.123186,-1.143606 -0.788298,-1.859129 0.334886,-0.715522 1.230857,-1.043595 2.00152,-0.73206 l 2.58804,1.045485 c 0.770494,0.31122 1.123186,1.143607 0.788299,1.859129 -0.249088,0.531878 -0.808307,0.849555 -1.395673,0.849555 z"
   id="path8" /><path
   style="fill:#ca9ee6;fill-opacity:1;stroke-width:0.16342"
   d="m 50.29484,34.287531 c -0.587367,0 -1.146416,-0.317677 -1.395673,-0.849712 -0.334887,-0.715523 0.01781,-1.547909 0.788298,-1.859129 l 2.58804,-1.045485 c 0.770325,-0.311378 1.666465,0.01654 2.001521,0.73206 0.334887,0.715522 -0.01781,1.547909 -0.788299,1.859129 l -2.588039,1.045485 c -0.197541,0.08001 -0.403391,0.117652 -0.605848,0.117652 z"
   id="path9" />
<metadata
   id="metadata9"><rdf:RDF><cc:Work
       rdf:about=""><cc:license
         rdf:resource="https://www.gnu.org/licenses/gpl-3.0.html.en" /></cc:Work></rdf:RDF></metadata></svg>
